<?xml version="1.0" encoding="UTF-8"?>
<svg xmlns="http://www.w3.org/2000/svg" xmlns:xlink="http://www.w3.org/1999/xlink" width="30px" height="30px" viewBox="0 0 30 30" version="1.1">
<g id="surface1">
<path style=" stroke:none;fill-rule:evenodd;fill:rgb(10.588235%,12.156863%,13.72549%);fill-opacity:1;" d="M 15 0 C 6.710938 0 0 6.710938 0 15 C 0 21.636719 4.292969 27.242188 10.257812 29.230469 C 11.007812 29.363281 11.289062 28.914062 11.289062 28.519531 C 11.289062 28.164062 11.269531 26.980469 11.269531 25.726562 C 7.5 26.417969 6.523438 24.804688 6.226562 23.960938 C 6.054688 23.53125 5.324219 22.199219 4.6875 21.84375 C 4.164062 21.5625 3.414062 20.867188 4.667969 20.851562 C 5.851562 20.832031 6.695312 21.9375 6.976562 22.386719 C 8.324219 24.65625 10.480469 24.019531 11.34375 23.625 C 11.476562 22.648438 11.867188 21.992188 12.300781 21.617188 C 8.960938 21.242188 5.476562 19.949219 5.476562 14.210938 C 5.476562 12.582031 6.054688 11.230469 7.011719 10.179688 C 6.863281 9.804688 6.335938 8.269531 7.164062 6.207031 C 7.164062 6.207031 8.417969 5.8125 11.289062 7.742188 C 12.488281 7.40625 13.761719 7.238281 15.039062 7.238281 C 16.3125 7.238281 17.585938 7.40625 18.789062 7.742188 C 21.65625 5.792969 22.914062 6.207031 22.914062 6.207031 C 23.738281 8.269531 23.210938 9.804688 23.0625 10.179688 C 24.019531 11.230469 24.601562 12.5625 24.601562 14.210938 C 24.601562 19.96875 21.09375 21.242188 17.757812 21.617188 C 18.300781 22.085938 18.769531 22.988281 18.769531 24.394531 C 18.769531 26.398438 18.75 28.011719 18.75 28.519531 C 18.75 28.914062 19.03125 29.382812 19.78125 29.230469 C 25.707031 27.242188 30 21.617188 30 15 C 30 6.710938 23.289062 0 15 0 Z M 15 0 "/>
</g>
</svg>
