<?xml version="1.0" encoding="UTF-8"?>
<svg xmlns="http://www.w3.org/2000/svg" xmlns:xlink="http://www.w3.org/1999/xlink" width="30px" height="66px" viewBox="0 0 30 66" version="1.1">
<g id="surface1">
<path style=" stroke:none;fill-rule:evenodd;fill:rgb(85.490196%,27.45098%,28.235294%);fill-opacity:1;" d="M 14.867188 51.972656 C 10.996094 51.972656 8.007812 51.394531 6.566406 51.046875 C 5.585938 50.8125 4.796875 50.570312 4.195312 50.316406 L 6.113281 53.578125 L 6.863281 63.761719 C 6.863281 64.902344 10.507812 65.828125 15.007812 65.828125 C 19.503906 65.828125 23.148438 64.902344 23.148438 63.761719 L 23.746094 53.464844 L 25.558594 50.308594 C 24.957031 50.5625 24.160156 50.808594 23.164062 51.046875 C 21.726562 51.394531 18.734375 51.972656 14.867188 51.972656 Z M 25.621094 18.828125 C 22.78125 19.222656 19.011719 19.441406 15.007812 19.441406 C 11.003906 19.441406 7.234375 19.222656 4.394531 18.828125 C 2.984375 18.632812 1.871094 18.402344 1.085938 18.144531 C 0.894531 18.082031 0.578125 17.976562 0.269531 17.808594 L 2.03125 33.921875 C 2.113281 33.644531 2.203125 33.367188 2.304688 33.089844 C 2.511719 32.523438 2.75 31.972656 3.019531 31.429688 C 3.292969 30.890625 3.585938 30.378906 3.90625 29.898438 C 4.226562 29.417969 4.566406 28.976562 4.925781 28.570312 C 5.285156 28.164062 5.65625 27.816406 6.035156 27.527344 C 6.414062 27.234375 6.796875 27.007812 7.183594 26.84375 C 7.570312 26.679688 7.953125 26.597656 8.335938 26.597656 C 8.769531 26.597656 9.195312 26.714844 9.601562 26.953125 C 10.011719 27.191406 10.390625 27.574219 10.746094 28.109375 C 10.828125 28.226562 10.878906 28.347656 10.902344 28.46875 C 10.925781 28.589844 10.933594 28.703125 10.933594 28.8125 C 10.933594 29.066406 10.875 29.269531 10.75 29.414062 C 10.628906 29.5625 10.484375 29.636719 10.316406 29.636719 C 10.160156 29.636719 10.019531 29.554688 9.886719 29.394531 C 9.753906 29.230469 9.605469 29 9.441406 28.703125 C 9.289062 28.429688 9.121094 28.234375 8.933594 28.113281 C 8.75 27.988281 8.550781 27.929688 8.335938 27.929688 C 7.996094 27.929688 7.640625 28.066406 7.257812 28.34375 C 6.875 28.621094 6.496094 28.988281 6.121094 29.445312 C 5.746094 29.898438 5.390625 30.421875 5.046875 31.007812 C 4.703125 31.59375 4.398438 32.191406 4.132812 32.804688 C 3.871094 33.421875 3.660156 34.027344 3.503906 34.621094 C 3.347656 35.21875 3.269531 35.753906 3.269531 36.230469 C 3.269531 36.390625 3.28125 36.550781 3.300781 36.71875 C 3.324219 36.886719 3.363281 37.039062 3.425781 37.171875 C 3.484375 37.308594 3.566406 37.421875 3.667969 37.507812 C 3.773438 37.597656 3.902344 37.640625 4.0625 37.640625 C 4.238281 37.640625 4.441406 37.582031 4.667969 37.460938 C 4.894531 37.34375 5.128906 37.1875 5.371094 36.996094 C 5.613281 36.800781 5.855469 36.585938 6.101562 36.339844 C 6.347656 36.097656 6.574219 35.851562 6.785156 35.601562 C 6.996094 35.355469 7.183594 35.113281 7.347656 34.886719 C 7.511719 34.65625 7.632812 34.457031 7.714844 34.285156 L 8.382812 32.292969 C 8.464844 32.078125 8.574219 31.925781 8.703125 31.835938 C 8.835938 31.742188 8.972656 31.699219 9.113281 31.699219 C 9.179688 31.699219 9.246094 31.710938 9.3125 31.730469 C 9.382812 31.753906 9.441406 31.789062 9.492188 31.839844 C 9.546875 31.886719 9.589844 31.949219 9.621094 32.023438 C 9.652344 32.101562 9.667969 32.191406 9.667969 32.292969 C 9.667969 32.5625 9.644531 32.820312 9.59375 33.054688 C 9.546875 33.292969 9.484375 33.527344 9.410156 33.753906 C 9.335938 33.980469 9.253906 34.207031 9.164062 34.4375 C 9.070312 34.664062 8.980469 34.902344 8.894531 35.152344 C 8.875 35.179688 8.84375 35.269531 8.792969 35.421875 C 8.742188 35.570312 8.679688 35.757812 8.609375 35.984375 C 8.535156 36.210938 8.457031 36.464844 8.375 36.746094 C 8.289062 37.023438 8.203125 37.308594 8.113281 37.601562 C 8.027344 37.894531 7.941406 38.179688 7.859375 38.460938 C 7.777344 38.738281 7.703125 38.992188 7.640625 39.21875 C 7.574219 39.445312 7.519531 39.636719 7.476562 39.789062 C 7.433594 39.941406 7.40625 40.03125 7.398438 40.058594 C 7.375 40.148438 7.335938 40.25 7.28125 40.359375 C 7.230469 40.472656 7.167969 40.574219 7.09375 40.675781 C 7.023438 40.773438 6.945312 40.855469 6.855469 40.921875 C 6.769531 40.984375 6.683594 41.019531 6.589844 41.019531 C 6.4375 41.019531 6.324219 40.96875 6.253906 40.867188 C 6.1875 40.765625 6.152344 40.578125 6.152344 40.304688 L 6.152344 40.1875 C 6.152344 40.148438 6.152344 40.105469 6.160156 40.058594 C 6.164062 39.96875 6.199219 39.800781 6.265625 39.550781 C 6.332031 39.300781 6.414062 39.019531 6.507812 38.707031 C 6.601562 38.390625 6.703125 38.066406 6.808594 37.730469 C 6.917969 37.390625 7.015625 37.089844 7.101562 36.824219 C 6.847656 37.109375 6.570312 37.390625 6.273438 37.671875 C 5.976562 37.949219 5.671875 38.203125 5.359375 38.425781 C 5.046875 38.648438 4.730469 38.832031 4.414062 38.972656 C 4.097656 39.113281 3.792969 39.183594 3.5 39.183594 C 3.164062 39.183594 2.875 39.113281 2.632812 38.964844 C 2.589844 38.9375 2.546875 38.90625 2.503906 38.878906 L 3.484375 49.089844 C 3.738281 49.726562 8.539062 51.289062 14.867188 51.289062 C 21.195312 51.289062 25.996094 49.726562 26.246094 49.089844 L 27.65625 36.949219 C 27.539062 37.054688 27.425781 37.15625 27.316406 37.257812 C 26.914062 37.632812 26.53125 37.953125 26.175781 38.222656 C 25.816406 38.492188 25.46875 38.699219 25.125 38.84375 C 24.785156 38.992188 24.421875 39.066406 24.03125 39.066406 C 23.667969 39.066406 23.382812 38.988281 23.183594 38.828125 C 22.984375 38.671875 22.886719 38.453125 22.886719 38.175781 L 22.886719 38.113281 C 22.886719 38.089844 22.886719 38.066406 22.894531 38.039062 C 22.914062 37.871094 22.988281 37.675781 23.117188 37.453125 C 23.246094 37.234375 23.402344 37.003906 23.585938 36.765625 C 23.765625 36.527344 23.960938 36.289062 24.167969 36.042969 C 24.375 35.800781 24.566406 35.570312 24.742188 35.351562 C 24.917969 35.136719 25.0625 34.933594 25.175781 34.753906 C 25.292969 34.574219 25.351562 34.425781 25.351562 34.3125 C 25.351562 34.246094 25.324219 34.191406 25.277344 34.152344 C 25.230469 34.113281 25.148438 34.09375 25.039062 34.09375 C 24.847656 34.09375 24.648438 34.140625 24.445312 34.242188 C 24.242188 34.339844 24.039062 34.472656 23.839844 34.640625 C 23.640625 34.804688 23.445312 34.996094 23.257812 35.210938 C 23.066406 35.425781 22.890625 35.652344 22.722656 35.882812 C 22.558594 36.113281 22.40625 36.347656 22.269531 36.582031 C 22.132812 36.816406 22.015625 37.035156 21.921875 37.234375 C 21.890625 37.296875 21.851562 37.382812 21.796875 37.496094 C 21.746094 37.609375 21.6875 37.738281 21.625 37.878906 C 21.5625 38.019531 21.496094 38.164062 21.425781 38.316406 C 21.355469 38.464844 21.292969 38.605469 21.234375 38.738281 C 21.179688 38.871094 21.125 38.992188 21.082031 39.097656 C 21.035156 39.199219 21.003906 39.273438 20.984375 39.3125 C 20.960938 39.363281 20.921875 39.460938 20.863281 39.601562 C 20.808594 39.742188 20.746094 39.90625 20.675781 40.097656 C 20.601562 40.285156 20.527344 40.488281 20.445312 40.695312 C 20.367188 40.90625 20.292969 41.101562 20.222656 41.289062 C 20.152344 41.476562 20.09375 41.640625 20.039062 41.78125 C 19.988281 41.921875 19.953125 42.019531 19.9375 42.070312 C 19.890625 42.21875 19.835938 42.355469 19.769531 42.488281 C 19.707031 42.617188 19.632812 42.730469 19.546875 42.832031 C 19.460938 42.929688 19.367188 43.007812 19.257812 43.070312 C 19.152344 43.128906 19.027344 43.15625 18.894531 43.15625 C 18.722656 43.15625 18.578125 43.117188 18.464844 43.035156 C 18.351562 42.953125 18.296875 42.796875 18.296875 42.5625 C 18.296875 42.449219 18.3125 42.335938 18.339844 42.214844 C 18.367188 42.097656 18.40625 41.980469 18.449219 41.863281 C 18.492188 41.746094 18.535156 41.632812 18.582031 41.523438 C 18.628906 41.414062 18.667969 41.308594 18.707031 41.207031 C 18.96875 40.640625 19.230469 40.070312 19.5 39.503906 C 19.769531 38.933594 20.027344 38.371094 20.273438 37.8125 C 20.324219 37.699219 20.375 37.585938 20.421875 37.46875 C 20.410156 37.484375 20.394531 37.5 20.378906 37.511719 C 20.066406 37.8125 19.753906 38.078125 19.445312 38.304688 C 19.136719 38.535156 18.828125 38.71875 18.523438 38.855469 C 18.21875 38.988281 17.921875 39.058594 17.632812 39.058594 C 17.4375 39.058594 17.273438 39.027344 17.140625 38.964844 C 17.007812 38.902344 16.902344 38.816406 16.824219 38.710938 C 16.746094 38.601562 16.6875 38.476562 16.652344 38.328125 C 16.644531 38.277344 16.636719 38.226562 16.628906 38.171875 C 16.542969 38.238281 16.460938 38.300781 16.375 38.363281 C 16.074219 38.570312 15.78125 38.738281 15.496094 38.867188 C 15.207031 38.992188 14.945312 39.058594 14.71875 39.058594 C 14.484375 39.058594 14.300781 38.980469 14.15625 38.828125 C 14.011719 38.675781 13.9375 38.414062 13.9375 38.046875 C 13.9375 37.789062 13.976562 37.484375 14.054688 37.140625 C 13.929688 37.359375 13.773438 37.582031 13.585938 37.808594 C 13.398438 38.035156 13.183594 38.242188 12.945312 38.429688 C 12.703125 38.617188 12.433594 38.769531 12.136719 38.882812 C 11.839844 39 11.515625 39.058594 11.164062 39.058594 C 11.007812 39.058594 10.855469 39.039062 10.707031 39 C 10.5625 38.957031 10.433594 38.890625 10.320312 38.792969 C 10.210938 38.699219 10.121094 38.570312 10.054688 38.410156 C 9.988281 38.246094 9.953125 38.042969 9.953125 37.800781 C 9.953125 37.796875 9.964844 37.710938 9.984375 37.542969 C 10.003906 37.375 10.0625 37.113281 10.167969 36.753906 C 10.269531 36.394531 10.429688 35.929688 10.644531 35.355469 C 10.863281 34.785156 11.167969 34.09375 11.5625 33.277344 C 11.664062 33.0625 11.777344 32.90625 11.910156 32.8125 C 12.042969 32.722656 12.183594 32.675781 12.339844 32.675781 C 12.40625 32.675781 12.476562 32.683594 12.546875 32.703125 C 12.621094 32.722656 12.6875 32.753906 12.75 32.796875 C 12.8125 32.839844 12.863281 32.894531 12.902344 32.957031 C 12.9375 33.023438 12.957031 33.097656 12.957031 33.183594 C 12.957031 33.238281 12.953125 33.292969 12.9375 33.34375 C 12.914062 33.441406 12.863281 33.566406 12.78125 33.722656 C 12.703125 33.878906 12.609375 34.054688 12.503906 34.257812 C 12.398438 34.457031 12.289062 34.675781 12.171875 34.90625 C 12.050781 35.140625 11.941406 35.378906 11.84375 35.628906 C 11.742188 35.878906 11.65625 36.128906 11.582031 36.386719 C 11.511719 36.644531 11.46875 36.894531 11.460938 37.140625 C 11.460938 37.242188 11.484375 37.335938 11.53125 37.417969 C 11.582031 37.503906 11.660156 37.546875 11.769531 37.546875 C 12.082031 37.546875 12.378906 37.445312 12.664062 37.242188 C 12.945312 37.039062 13.207031 36.785156 13.449219 36.480469 C 13.6875 36.179688 13.90625 35.851562 14.101562 35.503906 C 14.296875 35.15625 14.457031 34.839844 14.585938 34.550781 C 14.679688 34.359375 14.757812 34.152344 14.828125 33.929688 C 14.898438 33.710938 14.972656 33.507812 15.054688 33.320312 C 15.136719 33.132812 15.230469 32.976562 15.335938 32.851562 C 15.441406 32.726562 15.574219 32.664062 15.730469 32.664062 C 15.90625 32.664062 16.042969 32.730469 16.144531 32.859375 C 16.242188 32.992188 16.292969 33.148438 16.292969 33.328125 C 16.292969 33.429688 16.261719 33.570312 16.195312 33.75 C 16.132812 33.925781 16.050781 34.128906 15.953125 34.359375 C 15.851562 34.589844 15.746094 34.832031 15.632812 35.09375 C 15.515625 35.355469 15.410156 35.617188 15.3125 35.886719 C 15.210938 36.15625 15.132812 36.417969 15.066406 36.675781 C 15 36.933594 14.96875 37.171875 14.96875 37.394531 C 14.96875 37.597656 15.074219 37.699219 15.285156 37.699219 C 15.433594 37.699219 15.621094 37.648438 15.839844 37.546875 C 16.0625 37.445312 16.292969 37.300781 16.535156 37.117188 C 16.597656 37.070312 16.65625 37.023438 16.71875 36.972656 C 16.785156 36.695312 16.863281 36.4375 16.957031 36.207031 C 17.125 35.765625 17.296875 35.324219 17.46875 34.890625 C 17.640625 34.453125 17.800781 34.054688 17.945312 33.691406 L 20.125 28.21875 C 20.214844 27.996094 20.328125 27.839844 20.476562 27.75 C 20.621094 27.660156 20.769531 27.613281 20.917969 27.613281 C 21.066406 27.613281 21.203125 27.664062 21.324219 27.757812 C 21.449219 27.855469 21.511719 28.011719 21.511719 28.226562 C 21.511719 28.328125 21.488281 28.4375 21.449219 28.550781 C 21.40625 28.660156 21.355469 28.785156 21.292969 28.914062 C 21.175781 29.179688 21.03125 29.503906 20.863281 29.890625 C 20.699219 30.273438 20.523438 30.695312 20.332031 31.144531 C 20.140625 31.597656 19.949219 32.070312 19.75 32.558594 C 19.550781 33.050781 19.355469 33.527344 19.164062 33.988281 C 18.976562 34.453125 18.796875 34.894531 18.632812 35.308594 C 18.464844 35.726562 18.324219 36.085938 18.203125 36.390625 C 18.148438 36.523438 18.097656 36.675781 18.046875 36.847656 C 17.996094 37.019531 17.972656 37.171875 17.972656 37.308594 C 17.972656 37.394531 17.988281 37.460938 18.015625 37.511719 C 18.042969 37.5625 18.101562 37.589844 18.183594 37.589844 C 18.28125 37.589844 18.410156 37.554688 18.558594 37.484375 C 18.710938 37.414062 18.875 37.320312 19.050781 37.203125 C 19.226562 37.085938 19.40625 36.953125 19.597656 36.804688 C 19.785156 36.652344 19.976562 36.5 20.164062 36.335938 C 20.351562 36.175781 20.527344 36.015625 20.699219 35.851562 C 20.871094 35.691406 21.023438 35.542969 21.15625 35.40625 C 21.1875 35.375 21.226562 35.351562 21.269531 35.335938 C 21.347656 35.09375 21.421875 34.859375 21.488281 34.625 C 21.527344 34.523438 21.578125 34.378906 21.648438 34.195312 C 21.714844 34.007812 21.789062 33.824219 21.878906 33.640625 C 21.964844 33.460938 22.0625 33.304688 22.167969 33.171875 C 22.277344 33.039062 22.394531 32.972656 22.519531 32.972656 C 22.710938 32.972656 22.851562 33.015625 22.9375 33.101562 C 23.023438 33.191406 23.066406 33.320312 23.066406 33.488281 C 23.066406 33.523438 23.0625 33.578125 23.050781 33.652344 C 23.042969 33.722656 23.03125 33.800781 23.015625 33.882812 C 23 33.964844 22.984375 34.042969 22.96875 34.117188 C 22.953125 34.191406 22.9375 34.246094 22.921875 34.277344 C 23.097656 34.085938 23.292969 33.894531 23.5 33.707031 C 23.703125 33.515625 23.917969 33.34375 24.140625 33.191406 C 24.359375 33.039062 24.585938 32.914062 24.816406 32.820312 C 25.046875 32.722656 25.277344 32.675781 25.507812 32.675781 C 25.667969 32.675781 25.824219 32.695312 25.980469 32.742188 C 26.136719 32.789062 26.273438 32.855469 26.398438 32.941406 C 26.519531 33.03125 26.621094 33.140625 26.695312 33.273438 C 26.773438 33.40625 26.8125 33.558594 26.8125 33.734375 C 26.8125 33.96875 26.753906 34.214844 26.636719 34.476562 C 26.519531 34.742188 26.371094 35.007812 26.191406 35.273438 C 26.015625 35.539062 25.824219 35.796875 25.617188 36.046875 C 25.410156 36.300781 25.214844 36.53125 25.035156 36.734375 C 24.855469 36.941406 24.703125 37.117188 24.582031 37.261719 C 24.460938 37.40625 24.394531 37.503906 24.390625 37.554688 C 24.390625 37.625 24.414062 37.679688 24.457031 37.722656 C 24.5 37.761719 24.570312 37.785156 24.671875 37.785156 C 24.753906 37.785156 24.875 37.738281 25.03125 37.648438 C 25.191406 37.558594 25.414062 37.402344 25.699219 37.175781 C 25.984375 36.953125 26.347656 36.652344 26.785156 36.277344 C 27.089844 36.019531 27.441406 35.710938 27.839844 35.363281 L 29.742188 17.808594 C 29.4375 17.976562 29.117188 18.082031 28.929688 18.144531 C 28.140625 18.402344 27.027344 18.632812 25.621094 18.828125 Z M 14.996094 14.664062 C 6.757812 14.664062 0.0820312 15.582031 0.0820312 16.710938 C 0.0820312 17.839844 6.757812 18.757812 14.996094 18.757812 C 23.234375 18.757812 29.910156 17.839844 29.910156 16.710938 C 29.910156 15.582031 23.234375 14.664062 14.996094 14.664062 Z M 20.949219 17.308594 C 20.949219 17.574219 20.15625 17.789062 19.179688 17.789062 C 18.199219 17.789062 17.40625 17.574219 17.40625 17.308594 C 17.40625 17.042969 18.199219 16.828125 19.179688 16.828125 C 20.15625 16.828125 20.949219 17.042969 20.949219 17.308594 Z M 20.949219 17.308594 "/>
<path style=" stroke:none;fill-rule:evenodd;fill:rgb(85.490196%,27.45098%,28.235294%);fill-opacity:1;" d="M 17.765625 17.097656 C 17.753906 17.109375 17.75 17.125 17.75 17.140625 C 17.75 17.3125 18.390625 17.449219 19.179688 17.449219 C 19.964844 17.449219 20.605469 17.3125 20.605469 17.140625 L 22.46875 9.621094 L 29.878906 1.839844 C 29.882812 1.835938 29.882812 1.832031 29.886719 1.832031 C 30.042969 1.65625 29.726562 1.109375 29.195312 0.640625 C 28.667969 0.171875 28.097656 0.0117188 27.921875 0.191406 C 27.921875 0.191406 27.917969 0.195312 27.917969 0.195312 L 20.011719 8.472656 Z M 17.765625 17.097656 "/>
</g>
</svg>
