<?xml version="1.0" encoding="UTF-8"?>
<svg xmlns="http://www.w3.org/2000/svg" xmlns:xlink="http://www.w3.org/1999/xlink" width="46px" height="30px" viewBox="0 0 46 30" version="1.1">
<g id="surface1">
<path style=" stroke:none;fill-rule:nonzero;fill:rgb(14.901961%,30.196078%,89.411765%);fill-opacity:1;" d="M 10.535156 30 L 1.917969 27.589844 L 0 5.894531 L 21.09375 5.894531 L 19.171875 27.585938 Z M 10.535156 30 "/>
<path style=" stroke:none;fill-rule:nonzero;fill:rgb(16.078431%,39.607843%,94.509804%);fill-opacity:1;" d="M 17.527344 26.207031 L 19.167969 7.667969 L 10.546875 7.667969 L 10.546875 28.15625 Z M 17.527344 26.207031 "/>
<path style=" stroke:none;fill-rule:nonzero;fill:rgb(92.156863%,92.156863%,92.156863%);fill-opacity:1;" d="M 4.402344 15.714844 L 4.636719 18.375 L 10.546875 18.375 L 10.546875 15.714844 Z M 4.402344 15.714844 "/>
<path style=" stroke:none;fill-rule:nonzero;fill:rgb(92.156863%,92.156863%,92.156863%);fill-opacity:1;" d="M 3.925781 10.332031 L 4.164062 12.992188 L 10.546875 12.992188 L 10.546875 10.332031 Z M 3.925781 10.332031 "/>
<path style=" stroke:none;fill-rule:nonzero;fill:rgb(92.156863%,92.156863%,92.156863%);fill-opacity:1;" d="M 10.546875 22.625 L 10.535156 22.628906 L 7.59375 21.828125 L 7.40625 19.707031 L 4.753906 19.707031 L 5.125 23.886719 L 10.535156 25.398438 L 10.546875 25.394531 Z M 10.546875 22.625 "/>
<path style=" stroke:none;fill-rule:nonzero;fill:rgb(100%,100%,100%);fill-opacity:1;" d="M 16.675781 15.714844 L 17.152344 10.332031 L 10.539062 10.332031 L 10.539062 12.992188 L 14.257812 12.992188 L 14.019531 15.714844 L 10.539062 15.714844 L 10.539062 18.375 L 13.789062 18.375 L 13.484375 21.828125 L 10.539062 22.628906 L 10.539062 25.398438 L 15.953125 23.886719 L 15.992188 23.433594 L 16.613281 16.429688 Z M 16.675781 15.714844 "/>
<path style=" stroke:none;fill-rule:nonzero;fill:rgb(89.411765%,30.196078%,14.901961%);fill-opacity:1;" d="M 46.019531 5.894531 L 44.097656 27.585938 L 35.457031 30 L 26.84375 27.589844 L 24.921875 5.894531 Z M 46.019531 5.894531 "/>
<path style=" stroke:none;fill-rule:nonzero;fill:rgb(94.509804%,39.607843%,16.078431%);fill-opacity:1;" d="M 35.46875 28.15625 L 42.449219 26.207031 L 44.09375 7.667969 L 35.46875 7.667969 Z M 35.46875 28.15625 "/>
<path style=" stroke:none;fill-rule:nonzero;fill:rgb(92.156863%,92.156863%,92.156863%);fill-opacity:1;" d="M 31.734375 12.992188 L 35.46875 12.992188 L 35.46875 10.332031 L 28.847656 10.332031 L 28.910156 11.042969 L 29.5625 18.375 L 35.46875 18.375 L 35.46875 15.714844 L 31.976562 15.714844 Z M 31.734375 12.992188 "/>
<path style=" stroke:none;fill-rule:nonzero;fill:rgb(92.156863%,92.156863%,92.156863%);fill-opacity:1;" d="M 32.328125 19.707031 L 29.679688 19.707031 L 30.050781 23.886719 L 35.457031 25.398438 L 35.46875 25.394531 L 35.46875 22.625 L 35.457031 22.628906 L 32.519531 21.828125 Z M 32.328125 19.707031 "/>
<path style=" stroke:none;fill-rule:nonzero;fill:rgb(100%,100%,100%);fill-opacity:1;" d="M 35.460938 18.375 L 38.714844 18.375 L 38.40625 21.828125 L 35.460938 22.628906 L 35.460938 25.398438 L 40.875 23.886719 L 40.914062 23.433594 L 41.535156 16.429688 L 41.601562 15.714844 L 35.460938 15.714844 Z M 35.460938 18.375 "/>
<path style=" stroke:none;fill-rule:nonzero;fill:rgb(100%,100%,100%);fill-opacity:1;" d="M 35.460938 12.984375 L 35.460938 12.992188 L 41.839844 12.992188 L 41.894531 12.394531 L 42.011719 11.042969 L 42.078125 10.332031 L 35.460938 10.332031 Z M 35.460938 12.984375 "/>
</g>
</svg>
