<?xml version="1.0" encoding="UTF-8"?>
<svg xmlns="http://www.w3.org/2000/svg" xmlns:xlink="http://www.w3.org/1999/xlink" width="28px" height="28px" viewBox="0 0 28 21" version="1.1">
<g id="surface1">
<path style=" stroke:none;fill-rule:nonzero;fill:rgb(80.392157%,40.392157%,60%);fill-opacity:1;" d="M 24.09375 12.070312 C 23.121094 12.074219 22.269531 12.308594 21.558594 12.65625 C 21.296875 12.140625 21.039062 11.679688 20.992188 11.34375 C 20.941406 10.949219 20.878906 10.710938 20.941406 10.238281 C 21.003906 9.769531 21.277344 9.101562 21.273438 9.046875 C 21.269531 8.996094 21.214844 8.757812 20.648438 8.753906 C 20.085938 8.746094 19.601562 8.859375 19.546875 9.007812 C 19.492188 9.15625 19.382812 9.492188 19.308594 9.839844 C 19.214844 10.351562 18.1875 12.175781 17.597656 13.132812 C 17.410156 12.757812 17.246094 12.433594 17.210938 12.171875 C 17.160156 11.777344 17.097656 11.535156 17.160156 11.066406 C 17.222656 10.597656 17.496094 9.929688 17.492188 9.875 C 17.488281 9.824219 17.429688 9.582031 16.867188 9.582031 C 16.304688 9.574219 15.816406 9.6875 15.761719 9.835938 C 15.707031 9.984375 15.644531 10.332031 15.527344 10.667969 C 15.410156 11.003906 14.046875 14.050781 13.6875 14.839844 C 13.503906 15.246094 13.347656 15.5625 13.234375 15.785156 C 13.234375 15.785156 13.230469 15.800781 13.210938 15.828125 C 13.117188 16.015625 13.058594 16.117188 13.058594 16.117188 C 13.058594 16.117188 13.058594 16.117188 13.058594 16.121094 C 12.984375 16.261719 12.902344 16.386719 12.859375 16.386719 C 12.828125 16.386719 12.773438 16.019531 12.871094 15.519531 C 13.074219 14.460938 13.558594 12.816406 13.554688 12.757812 C 13.554688 12.730469 13.648438 12.441406 13.238281 12.292969 C 12.839844 12.144531 12.695312 12.390625 12.660156 12.390625 C 12.625 12.390625 12.601562 12.476562 12.601562 12.476562 C 12.601562 12.476562 13.042969 10.628906 11.753906 10.628906 C 10.941406 10.628906 9.832031 11.511719 9.277344 12.308594 C 8.929688 12.5 8.191406 12.902344 7.394531 13.335938 C 7.097656 13.503906 6.785156 13.675781 6.492188 13.832031 C 6.472656 13.8125 6.449219 13.785156 6.429688 13.765625 C 4.867188 12.09375 1.972656 10.914062 2.09375 8.671875 C 2.140625 7.851562 2.421875 5.707031 7.652344 3.097656 C 11.953125 0.980469 15.378906 1.5625 15.972656 2.867188 C 16.820312 4.730469 14.136719 8.183594 9.691406 8.683594 C 7.996094 8.875 7.105469 8.21875 6.878906 7.976562 C 6.644531 7.71875 6.609375 7.703125 6.519531 7.753906 C 6.378906 7.832031 6.472656 8.0625 6.519531 8.195312 C 6.65625 8.542969 7.203125 9.15625 8.125 9.457031 C 8.945312 9.722656 10.933594 9.871094 13.339844 8.941406 C 16.035156 7.898438 18.140625 5 17.523438 2.574219 C 16.902344 0.109375 12.8125 -0.703125 8.945312 0.667969 C 6.644531 1.488281 4.152344 2.777344 2.355469 4.453125 C 0.222656 6.449219 -0.113281 8.179688 0.0234375 8.90625 C 0.523438 11.480469 4.074219 13.15625 5.492188 14.398438 C 5.421875 14.441406 5.355469 14.476562 5.300781 14.507812 C 4.589844 14.863281 1.882812 16.273438 1.207031 17.773438 C 0.441406 19.472656 1.328125 20.6875 1.917969 20.847656 C 3.742188 21.355469 5.617188 20.449219 6.625 18.945312 C 7.632812 17.441406 7.507812 15.488281 7.042969 14.59375 C 7.039062 14.585938 7.03125 14.574219 7.023438 14.5625 C 7.207031 14.457031 7.394531 14.34375 7.578125 14.234375 C 7.941406 14.023438 8.300781 13.824219 8.609375 13.660156 C 8.433594 14.132812 8.308594 14.703125 8.246094 15.519531 C 8.167969 16.480469 8.5625 17.726562 9.078125 18.21875 C 9.308594 18.433594 9.578125 18.4375 9.753906 18.4375 C 10.355469 18.4375 10.625 17.9375 10.929688 17.34375 C 11.296875 16.621094 11.628906 15.773438 11.628906 15.773438 C 11.628906 15.773438 11.214844 18.054688 12.335938 18.054688 C 12.746094 18.054688 13.160156 17.523438 13.347656 17.25 C 13.347656 17.257812 13.347656 17.257812 13.347656 17.257812 C 13.347656 17.257812 13.355469 17.242188 13.375 17.207031 C 13.417969 17.140625 13.441406 17.097656 13.441406 17.097656 C 13.441406 17.097656 13.441406 17.09375 13.441406 17.089844 C 13.605469 16.800781 13.976562 16.152344 14.523438 15.074219 C 15.226562 13.683594 15.90625 11.945312 15.90625 11.945312 C 15.90625 11.945312 15.96875 12.371094 16.175781 13.074219 C 16.300781 13.492188 16.558594 13.945312 16.757812 14.386719 C 16.597656 14.613281 16.492188 14.742188 16.492188 14.742188 C 16.492188 14.742188 16.492188 14.742188 16.5 14.746094 C 16.363281 14.921875 16.222656 15.109375 16.066406 15.292969 C 15.507812 15.957031 14.84375 16.722656 14.753906 16.941406 C 14.644531 17.203125 14.667969 17.390625 14.875 17.542969 C 15.023438 17.65625 15.289062 17.671875 15.558594 17.65625 C 16.058594 17.621094 16.410156 17.496094 16.585938 17.421875 C 16.855469 17.324219 17.175781 17.175781 17.46875 16.957031 C 18.015625 16.550781 18.351562 15.972656 18.320312 15.210938 C 18.304688 14.792969 18.164062 14.375 17.996094 13.980469 C 18.046875 13.910156 18.09375 13.839844 18.144531 13.765625 C 19.007812 12.503906 19.679688 11.117188 19.679688 11.117188 C 19.679688 11.117188 19.738281 11.542969 19.949219 12.246094 C 20.050781 12.605469 20.261719 12.992188 20.445312 13.375 C 19.632812 14.03125 19.132812 14.796875 18.953125 15.300781 C 18.632812 16.230469 18.878906 16.648438 19.355469 16.746094 C 19.574219 16.792969 19.878906 16.691406 20.101562 16.59375 C 20.390625 16.503906 20.726562 16.34375 21.050781 16.109375 C 21.597656 15.703125 22.121094 15.140625 22.089844 14.378906 C 22.074219 14.03125 21.984375 13.6875 21.855469 13.355469 C 22.542969 13.070312 23.4375 12.910156 24.570312 13.046875 C 27.003906 13.332031 27.484375 14.851562 27.394531 15.488281 C 27.300781 16.128906 26.789062 16.472656 26.621094 16.582031 C 26.453125 16.691406 26.394531 16.726562 26.410156 16.800781 C 26.429688 16.914062 26.511719 16.910156 26.65625 16.890625 C 26.855469 16.855469 27.933594 16.375 27.980469 15.199219 C 28.058594 13.695312 26.625 12.054688 24.09375 12.070312 Z M 5.328125 18.398438 C 4.515625 19.277344 3.394531 19.609375 2.910156 19.328125 C 2.386719 19.027344 2.59375 17.726562 3.582031 16.796875 C 4.1875 16.230469 4.964844 15.703125 5.480469 15.378906 C 5.597656 15.308594 5.769531 15.207031 5.980469 15.082031 C 6.015625 15.058594 6.039062 15.050781 6.039062 15.050781 C 6.078125 15.023438 6.121094 14.996094 6.160156 14.972656 C 6.519531 16.300781 6.175781 17.472656 5.328125 18.398438 Z M 11.203125 14.398438 C 10.925781 15.085938 10.335938 16.839844 9.976562 16.738281 C 9.671875 16.660156 9.484375 15.328125 9.914062 14.015625 C 10.136719 13.355469 10.601562 12.570312 10.871094 12.261719 C 11.3125 11.769531 11.796875 11.609375 11.914062 11.808594 C 12.0625 12.070312 11.378906 13.96875 11.203125 14.398438 Z M 16.054688 16.722656 C 15.9375 16.78125 15.824219 16.820312 15.773438 16.792969 C 15.738281 16.773438 15.824219 16.691406 15.824219 16.691406 C 15.824219 16.691406 16.433594 16.035156 16.675781 15.738281 C 16.8125 15.5625 16.976562 15.363281 17.148438 15.132812 C 17.148438 15.152344 17.148438 15.175781 17.148438 15.199219 C 17.148438 15.980469 16.394531 16.503906 16.054688 16.722656 Z M 19.796875 15.867188 C 19.710938 15.804688 19.726562 15.601562 20.015625 14.960938 C 20.128906 14.710938 20.394531 14.292969 20.847656 13.886719 C 20.902344 14.050781 20.9375 14.210938 20.933594 14.359375 C 20.925781 15.34375 20.222656 15.714844 19.796875 15.867188 Z M 19.796875 15.867188 "/>
</g>
</svg>
