<?xml version="1.0" encoding="UTF-8"?>
<svg xmlns="http://www.w3.org/2000/svg" xmlns:xlink="http://www.w3.org/1999/xlink" width="15px" height="15px" viewBox="0 0 15 15" version="1.1">
<g id="surface1">
<path style=" stroke:none;fill-rule:nonzero;fill:rgb(0%,0%,0%);fill-opacity:1;" d="M 7.5 0.234375 C 3.359375 0.234375 0 3.488281 0 7.5 C 0 11.511719 3.359375 14.765625 7.5 14.765625 C 11.640625 14.765625 15 11.511719 15 7.5 C 15 3.488281 11.640625 0.234375 7.5 0.234375 Z M 10.976562 5.175781 C 10.863281 6.324219 10.375 9.113281 10.125 10.398438 C 10.019531 10.945312 9.8125 11.125 9.613281 11.144531 C 9.179688 11.183594 8.847656 10.867188 8.425781 10.597656 C 7.765625 10.179688 7.394531 9.917969 6.753906 9.507812 C 6.011719 9.035156 6.492188 8.777344 6.914062 8.351562 C 7.023438 8.238281 8.941406 6.550781 8.980469 6.394531 C 8.984375 6.375 8.988281 6.304688 8.945312 6.265625 C 8.902344 6.230469 8.835938 6.242188 8.789062 6.253906 C 8.722656 6.265625 7.667969 6.941406 5.625 8.277344 C 5.328125 8.476562 5.054688 8.574219 4.8125 8.570312 C 4.546875 8.5625 4.03125 8.421875 3.648438 8.300781 C 3.175781 8.152344 2.804688 8.074219 2.835938 7.824219 C 2.855469 7.695312 3.039062 7.558594 3.394531 7.421875 C 5.582031 6.5 7.039062 5.890625 7.769531 5.597656 C 9.851562 4.757812 10.285156 4.613281 10.566406 4.609375 C 10.628906 4.605469 10.765625 4.621094 10.855469 4.691406 C 10.917969 4.742188 10.953125 4.8125 10.964844 4.890625 C 10.980469 4.984375 10.984375 5.078125 10.976562 5.175781 Z M 10.976562 5.175781 "/>
</g>
</svg>
